# xmcd
#
# Track frame offsets:
#	150
#	874
#	12167
#	14773
#	34075
#	48549
#	66904
#	82697
#	103027
#	121179
#	139871
#	158126
#	160136
#	175138
#	190995
#	204425
#	223634
#	243323
#	254186
#	273325
#	291880
#	311765
#	322800
#	327072
#	341216
#	341881
#	342531
#	343218
#	343913
#	344789
#	345740
#	347750
#
# Disc length: 4667 seconds
#
# Revision: 1
# Processed by: cddbd v1.5.2PL0 Copyright (c) Steve Scherf et al.
# Submitted via: audiograbber 1.83.01
#
DISCID=f8123920
DTITLE=Country Hotdisc - Country Hotdisc 058
DYEAR=1900
DGENRE=
TTITLE0=Intro - Intro
TTITLE1=Gone Gone Gone  - George Hamilton V
TTITLE2=Spot - Lynne Taylor Donovan
TTITLE3=Soft Place  - Lynne Taylor Donovan
TTITLE4=I Don´t Think She´s In Love Anymore  - B. Jeff Stone
TTITLE5=A Cigarette A Bottle And A Jukebox - Big Al Downing
TTITLE6=Hey You With The Hat On  - Blue Orchid
TTITLE7=Folsom Prison Blues  - Bunco Kelly
TTITLE8=Don´t Speak In English - Chip Taylor and Carrie Rodriguez
TTITLE9=Ontario  - Mary Lamont
TTITLE10=Running Away With My Heart  - Curtis Alan
TTITLE11=Soundbite  - The Mickeys
TTITLE12=Old Kentucky Wind  - The Mickeys
TTITLE13=Dance Till Dawn  - Gary Cambell
TTITLE14=Ain´t Got Nothing - Eve Selis
TTITLE15=Backtracking - Western Union
TTITLE16=More Than You Ever Have To Lose  - Sadler-dale Band
TTITLE17=Waltz Across Texas  - Gemma Fairweather
TTITLE18=Keeper Of The Key To My Heart  - Kerr Donnelly Band
TTITLE19=That Old Church - Richard Lee
TTITLE20=The Year Of Goodbyes  - Laura Gauthier
TTITLE21=I Love To Sing  - Vernon Oxford
TTITLE22=Soundbite  - Wayne Austin
TTITLE23=Sierra Timber Wind  - Wayne Austin
TTITLE24=Generic Ids  - Lynne Taylor Donovan
TTITLE25=Generic Ids  - Lynne Taylor Donovan
TTITLE26=Generic Ids  - Lynne Taylor Donovan
TTITLE27=Generic Ids  - Crissy Cummings
TTITLE28=Generic Ids  - The Mickeys
TTITLE29=Generic Ids  - The Mickeys
TTITLE30=Generic Ids  - The Mickeys
TTITLE31=Sounbite  - Donna Boyd Chi 57 Song
EXTD=
EXTT0=
EXTT1=
EXTT2=
EXTT3=
EXTT4=
EXTT5=
EXTT6=
EXTT7=
EXTT8=
EXTT9=
EXTT10=
EXTT11=
EXTT12=
EXTT13=
EXTT14=
EXTT15=
EXTT16=
EXTT17=
EXTT18=
EXTT19=
EXTT20=
EXTT21=
EXTT22=
EXTT23=
EXTT24=
EXTT25=
EXTT26=
EXTT27=
EXTT28=
EXTT29=
EXTT30=
EXTT31=
PLAYORDER=
